<mxfile host="app.diagrams.net" modified="2023-04-02T23:21:42.453Z" agent="Mozilla/5.0 (Windows NT 10.0; Win64; x64) AppleWebKit/537.36 (KHTML, like Gecko) Chrome/111.0.0.0 Safari/537.36" etag="jRENCh9dG5MvUNPbe7-p" version="21.1.2" type="device">
  <diagram id="BUUksb0ictXHKsoipMkl" name="Page-1">
    <mxGraphModel dx="882" dy="596" grid="1" gridSize="10" guides="1" tooltips="1" connect="1" arrows="1" fold="1" page="1" pageScale="1" pageWidth="850" pageHeight="1100" math="0" shadow="0">
      <root>
        <mxCell id="0" />
        <mxCell id="1" parent="0" />
        <mxCell id="tsubMJvMA50UOceoqToI-4" style="edgeStyle=orthogonalEdgeStyle;rounded=0;orthogonalLoop=1;jettySize=auto;html=1;exitX=1;exitY=0.5;exitDx=0;exitDy=0;" edge="1" parent="1" source="3KGYy25TvGx8XoObnRTk-1" target="3KGYy25TvGx8XoObnRTk-2">
          <mxGeometry relative="1" as="geometry" />
        </mxCell>
        <mxCell id="3KGYy25TvGx8XoObnRTk-1" value="User" style="rounded=1;whiteSpace=wrap;html=1;" parent="1" vertex="1">
          <mxGeometry x="80" y="160" width="120" height="60" as="geometry" />
        </mxCell>
        <mxCell id="tsubMJvMA50UOceoqToI-8" style="edgeStyle=orthogonalEdgeStyle;rounded=0;orthogonalLoop=1;jettySize=auto;html=1;exitX=1;exitY=0.5;exitDx=0;exitDy=0;entryX=0;entryY=0.5;entryDx=0;entryDy=0;" edge="1" parent="1" source="3KGYy25TvGx8XoObnRTk-2" target="3KGYy25TvGx8XoObnRTk-7">
          <mxGeometry relative="1" as="geometry" />
        </mxCell>
        <mxCell id="3KGYy25TvGx8XoObnRTk-2" value="Tweet selection" style="rounded=1;whiteSpace=wrap;html=1;" parent="1" vertex="1">
          <mxGeometry x="280" y="160" width="120" height="60" as="geometry" />
        </mxCell>
        <mxCell id="3KGYy25TvGx8XoObnRTk-5" value="Generate feed" style="text;html=1;strokeColor=none;fillColor=none;align=center;verticalAlign=middle;whiteSpace=wrap;rounded=0;" parent="1" vertex="1">
          <mxGeometry x="190" y="130" width="100" height="30" as="geometry" />
        </mxCell>
        <mxCell id="tsubMJvMA50UOceoqToI-9" style="edgeStyle=orthogonalEdgeStyle;rounded=0;orthogonalLoop=1;jettySize=auto;html=1;exitX=1;exitY=0.5;exitDx=0;exitDy=0;" edge="1" parent="1" source="3KGYy25TvGx8XoObnRTk-7" target="tsubMJvMA50UOceoqToI-1">
          <mxGeometry relative="1" as="geometry" />
        </mxCell>
        <mxCell id="tsubMJvMA50UOceoqToI-19" style="edgeStyle=orthogonalEdgeStyle;rounded=0;orthogonalLoop=1;jettySize=auto;html=1;exitX=0.25;exitY=1;exitDx=0;exitDy=0;" edge="1" parent="1" source="3KGYy25TvGx8XoObnRTk-7" target="tsubMJvMA50UOceoqToI-11">
          <mxGeometry relative="1" as="geometry" />
        </mxCell>
        <mxCell id="3KGYy25TvGx8XoObnRTk-7" value="Ranker" style="rounded=1;whiteSpace=wrap;html=1;" parent="1" vertex="1">
          <mxGeometry x="480" y="160" width="120" height="60" as="geometry" />
        </mxCell>
        <mxCell id="tsubMJvMA50UOceoqToI-10" style="edgeStyle=orthogonalEdgeStyle;rounded=0;orthogonalLoop=1;jettySize=auto;html=1;exitX=0.5;exitY=1;exitDx=0;exitDy=0;" edge="1" parent="1" source="3KGYy25TvGx8XoObnRTk-11" target="3KGYy25TvGx8XoObnRTk-7">
          <mxGeometry relative="1" as="geometry" />
        </mxCell>
        <mxCell id="3KGYy25TvGx8XoObnRTk-11" value="Training data generation" style="rounded=1;whiteSpace=wrap;html=1;" parent="1" vertex="1">
          <mxGeometry x="480" y="40" width="120" height="60" as="geometry" />
        </mxCell>
        <mxCell id="3KGYy25TvGx8XoObnRTk-14" value="Feed engagement data" style="text;html=1;strokeColor=none;fillColor=none;align=center;verticalAlign=middle;whiteSpace=wrap;rounded=0;" parent="1" vertex="1">
          <mxGeometry x="660" y="40" width="140" height="30" as="geometry" />
        </mxCell>
        <mxCell id="tsubMJvMA50UOceoqToI-7" style="edgeStyle=orthogonalEdgeStyle;rounded=0;orthogonalLoop=1;jettySize=auto;html=1;exitX=0.5;exitY=0;exitDx=0;exitDy=0;entryX=1;entryY=0.5;entryDx=0;entryDy=0;" edge="1" parent="1" source="tsubMJvMA50UOceoqToI-1" target="3KGYy25TvGx8XoObnRTk-11">
          <mxGeometry relative="1" as="geometry" />
        </mxCell>
        <mxCell id="tsubMJvMA50UOceoqToI-1" value="Feed" style="rounded=1;whiteSpace=wrap;html=1;" vertex="1" parent="1">
          <mxGeometry x="680" y="160" width="120" height="60" as="geometry" />
        </mxCell>
        <mxCell id="tsubMJvMA50UOceoqToI-3" value="Returned candidates" style="text;html=1;strokeColor=none;fillColor=none;align=center;verticalAlign=middle;whiteSpace=wrap;rounded=0;" vertex="1" parent="1">
          <mxGeometry x="380" y="130" width="125" height="30" as="geometry" />
        </mxCell>
        <mxCell id="tsubMJvMA50UOceoqToI-16" style="edgeStyle=orthogonalEdgeStyle;rounded=0;orthogonalLoop=1;jettySize=auto;html=1;exitX=1;exitY=0.5;exitDx=0;exitDy=0;entryX=0;entryY=0.5;entryDx=0;entryDy=0;" edge="1" parent="1" source="tsubMJvMA50UOceoqToI-11" target="tsubMJvMA50UOceoqToI-14">
          <mxGeometry relative="1" as="geometry" />
        </mxCell>
        <mxCell id="tsubMJvMA50UOceoqToI-11" value="Feature store" style="rounded=1;whiteSpace=wrap;html=1;" vertex="1" parent="1">
          <mxGeometry x="280" y="280" width="120" height="60" as="geometry" />
        </mxCell>
        <mxCell id="tsubMJvMA50UOceoqToI-15" style="edgeStyle=orthogonalEdgeStyle;rounded=0;orthogonalLoop=1;jettySize=auto;html=1;exitX=1;exitY=0.5;exitDx=0;exitDy=0;entryX=0;entryY=0.5;entryDx=0;entryDy=0;" edge="1" parent="1" source="tsubMJvMA50UOceoqToI-12" target="tsubMJvMA50UOceoqToI-11">
          <mxGeometry relative="1" as="geometry" />
        </mxCell>
        <mxCell id="tsubMJvMA50UOceoqToI-12" value="Feature pipeline" style="rounded=1;whiteSpace=wrap;html=1;" vertex="1" parent="1">
          <mxGeometry x="80" y="280" width="120" height="60" as="geometry" />
        </mxCell>
        <mxCell id="tsubMJvMA50UOceoqToI-18" style="edgeStyle=orthogonalEdgeStyle;rounded=0;orthogonalLoop=1;jettySize=auto;html=1;exitX=0.5;exitY=0;exitDx=0;exitDy=0;entryX=0.75;entryY=1;entryDx=0;entryDy=0;" edge="1" parent="1" source="tsubMJvMA50UOceoqToI-13" target="3KGYy25TvGx8XoObnRTk-7">
          <mxGeometry relative="1" as="geometry" />
        </mxCell>
        <mxCell id="tsubMJvMA50UOceoqToI-13" value="Model store" style="rounded=1;whiteSpace=wrap;html=1;" vertex="1" parent="1">
          <mxGeometry x="680" y="280" width="120" height="60" as="geometry" />
        </mxCell>
        <mxCell id="tsubMJvMA50UOceoqToI-17" style="edgeStyle=orthogonalEdgeStyle;rounded=0;orthogonalLoop=1;jettySize=auto;html=1;exitX=1;exitY=0.5;exitDx=0;exitDy=0;entryX=0;entryY=0.5;entryDx=0;entryDy=0;" edge="1" parent="1" source="tsubMJvMA50UOceoqToI-14" target="tsubMJvMA50UOceoqToI-13">
          <mxGeometry relative="1" as="geometry" />
        </mxCell>
        <mxCell id="tsubMJvMA50UOceoqToI-14" value="Model training" style="rounded=1;whiteSpace=wrap;html=1;" vertex="1" parent="1">
          <mxGeometry x="480" y="280" width="120" height="60" as="geometry" />
        </mxCell>
      </root>
    </mxGraphModel>
  </diagram>
</mxfile>
